<svg version="1.2" xmlns="http://www.w3.org/2000/svg" viewBox="0 0 83 73" width="83" height="73"><defs><clipPath clipPathUnits="userSpaceOnUse" id="cp1"><path d="m39.48 43h28.63v24.7h-28.63z"/></clipPath><linearGradient id="P" gradientUnits="userSpaceOnUse"/><radialGradient id="g1" cx="28.7" cy="51" r="16" href="#P"><stop stop-color="#fff"/><stop offset="1" stop-color="#fff"/></radialGradient></defs><style>.a{fill:#ffb800}.b{fill:#fff}.c{fill:#a5a5a5}.d{fill:url(#g1)}</style><rect class="a" x="14.7" y="23" width="52.2" height="50" rx="10"></rect><path class="a" d="m37.9 1.4c2-1.9 5.1-1.9 7 0l35.8 34.9c3.2 3.1 0.9 8.6-3.5 8.6h-71.5c-4.5 0-6.7-5.5-3.5-8.6z"/><g clip-path="url(#cp1)"><path class="b" d="m56.4 67.4h-1.6q-0.2 0-0.3-0.1-0.2 0-0.3-0.1-0.2-0.2-0.2-0.3-0.1-0.1-0.1-0.3 0-0.1 0.1-0.3 0-0.1 0.2-0.2 0.1-0.1 0.3-0.2 0.1 0 0.3 0h1.6c0.9 0 1.8-0.3 2.4-0.9 0.6-0.5 1-1.2 1-2v-7.7c0-0.6 0.3-1.3 0.8-1.7 0.5-0.5 1.2-0.7 2-0.7 0.7 0 1.4 0.2 1.9 0.7 0.6 0.4 0.9 1.1 0.9 1.7v0.6q-0.1 0.3-0.3 0.6-0.3 0.2-0.6 0.2-0.4 0-0.6-0.2-0.3-0.3-0.3-0.6v-0.6q0-0.4-0.3-0.6-0.3-0.3-0.7-0.3-0.5 0-0.8 0.3-0.3 0.2-0.3 0.6v7.7c0 1.2-0.5 2.3-1.5 3.1-0.9 0.8-2.2 1.3-3.6 1.3z"/><path class="b" d="m62.1 54.5q-0.2 0.1-0.4 0.3-0.2 0.2-0.2 0.5v7.7c0 1.2-0.5 2.3-1.5 3.1-0.9 0.8-2.2 1.3-3.6 1.3h-0.8c1.3 0 2.6-0.5 3.6-1.3 0.9-0.8 1.5-1.9 1.5-3.1v-7.7q0-0.4 0.3-0.6 0.3-0.3 0.7-0.3 0.2 0 0.4 0.1zm2.4-0.9c0.6 0.4 0.9 1.1 0.9 1.7v0.6q0 0.2-0.2 0.4-0.1 0.2-0.3 0.3-0.2 0.1-0.4 0.1-0.2 0-0.4-0.1 0.2-0.1 0.3-0.3 0.1-0.2 0.1-0.4v-0.6c0-0.6-0.2-1.1-0.7-1.6-0.4-0.4-1-0.7-1.7-0.8q0.2 0 0.5 0c0.7 0 1.4 0.2 1.9 0.7z"/><path class="b" d="m50.2 45.6q0.2 0 0.4 0 0.5 0 1 0.1 0.1 0 0.2-0.1 0.1 0 0.2-0.1 1.2-1.2 2.8-2.1c0.4 1.2 0.4 2.5 0.2 3.8q0 0.1 0 0.2 0.5 0.9 0.6 1.8c0 0.9-0.1 1.9-0.6 2.7q-0.1 0.2-0.1 0.5 0.1 0.2 0.2 0.5c0.9 1.6 2 3.7 2.5 6.2 0.3 1.3 0.3 2.3 0 3.4q0 0 0 0c-0.2 0.7-0.7 1.4-1.3 1.9-0.6 0.5-1.4 0.9-2.2 1.1-2.7 0.5-5.5 0.5-8.2 0-0.8-0.2-1.6-0.6-2.2-1.1-0.6-0.5-1-1.2-1.2-1.9q0 0 0 0c-0.3-1.1-0.3-2.1 0-3.4 0.5-2.5 1.5-4.6 2.5-6.2q0.1-0.3 0.1-0.5 0-0.3-0.1-0.5c-0.4-0.8-0.6-1.8-0.5-2.7q0.1-0.9 0.5-1.8 0-0.1 0-0.2c-0.2-1.3-0.1-2.6 0.2-3.8q1 0.5 1.8 1.2 0.6 0.5 1 0.9 0.1 0.1 0.2 0.2 0.1 0 0.2 0 0.5-0.1 1.1-0.1 0.3 0 0.7 0z"/><path fill-rule="evenodd" class="b" d="m57.6 62.5q0 0 0 0c-0.2 0.7-0.7 1.4-1.3 1.9-0.6 0.5-1.4 0.9-2.2 1.1q-2 0.4-4.1 0.4-0.4 0-0.8 0 1.6-0.1 3.2-0.4c0.9-0.2 1.6-0.6 2.2-1.1 0.7-0.5 1.1-1.2 1.3-1.9q0 0 0 0c0.3-1.1 0.3-2.1 0-3.4-0.5-2.5-1.6-4.6-2.5-6.2q-0.1-0.3-0.1-0.5 0-0.3 0.1-0.5c0.4-0.8 0.6-1.8 0.5-2.7q-0.1-0.9-0.5-1.8-0.1-0.1-0.1-0.2 0.3-1.4 0.1-2.9 0.7-0.5 1.4-0.9c0.4 1.2 0.4 2.5 0.2 3.8q0 0.1 0 0.2 0.5 0.9 0.6 1.8c0 0.9-0.1 1.9-0.6 2.7q-0.1 0.2-0.1 0.5 0.1 0.2 0.2 0.5c0.9 1.6 2 3.7 2.5 6.2 0.3 1.3 0.3 2.3 0 3.4zm-12.6-18.2q0.1-0.5 0.2-0.9 1 0.5 1.8 1.2 0.6 0.5 1 0.9 0.1 0.1 0.1 0.1-0.2 0-0.3 0-0.5 0-1.1 0.1-0.1 0-0.2 0-0.1-0.1-0.1-0.2-0.5-0.4-1-0.9-0.2-0.1-0.4-0.3zm4.2 1.3q0.1 0 0.3 0 0.3 0 0.7 0 0 0 0.1 0-0.1 0-0.2 0.1-0.1 0-0.2 0-0.3-0.1-0.7-0.1z"/><path class="b" d="m49.2 60.5v6.1q0 0.3-0.3 0.6-0.2 0.2-0.6 0.2h-4.7v-0.1c0-0.6 0.3-1.2 0.8-1.6 0.5-0.5 1.2-0.7 1.8-0.7v-3.6q0.1-0.4 0.4-0.7c0.2-0.1 0.5-0.2 0.8-0.2z"/><path class="b" d="m50 60.5v6.1q0 0.3-0.2 0.6-0.3 0.2-0.7 0.2h-4.6v-0.1c0-0.6 0.3-1.2 0.7-1.6 0.5-0.5 1.2-0.7 1.9-0.7v-4.5z"/><path class="b" d="m56.4 67.3v0.1h-4.7q-0.3 0-0.6-0.2-0.2-0.3-0.2-0.6v-6.1h1.8c0.3 0 0.6 0.1 0.8 0.2q0.3 0.3 0.3 0.7v3.6c0.7 0 1.3 0.2 1.8 0.7 0.5 0.4 0.8 1 0.8 1.6z"/><path class="b" d="m55.6 67.3v0.1h-4.7q-0.4 0-0.6-0.2-0.3-0.3-0.3-0.6v-6.1h2.9v4.5c0.7 0 1.4 0.2 1.9 0.7 0.5 0.4 0.8 1 0.8 1.6z"/><path class="c" d="m47.2 49.1c-0.5-0.4-0.6-1-0.3-1.3 0.4-0.3 1-0.2 1.5 0.3 0.5 0.4 0.6 1 0.3 1.3-0.4 0.3-1 0.2-1.5-0.3z"/><path class="b" d="m48.8 48.7q0.1 0.3-0.1 0.7-0.4 0.1-0.8 0 0.1 0 0.3 0 0.1-0.3 0.1-0.5 0-0.3-0.1-0.5-0.2-0.3-0.4-0.4-0.3-0.2-0.6-0.2 0.4-0.1 0.7 0 0.3 0.1 0.5 0.3 0.3 0.2 0.4 0.6z"/><path class="c" d="m51.4 49.4c-0.4-0.3-0.3-0.9 0.2-1.3 0.5-0.5 1.2-0.6 1.5-0.3 0.4 0.3 0.2 0.9-0.2 1.3-0.5 0.5-1.2 0.6-1.5 0.3z"/><path class="b" d="m53.2 48.4q0 0.4-0.2 0.6-0.2 0.3-0.6 0.4-0.3 0.1-0.7 0 0.3 0 0.6-0.2 0.2-0.1 0.3-0.3 0.2-0.3 0.2-0.6 0-0.2-0.1-0.5-0.2 0-0.4-0.1 0.4 0 0.8 0.1 0.2 0.3 0.1 0.6z"/><path class="b" d="m50.5 60.5v6.8q-0.2-0.1-0.4-0.3-0.1-0.2-0.1-0.4 0 0.2-0.1 0.4-0.1 0.2-0.3 0.3v-6.8z"/><path fill-rule="evenodd" class="b" d="m64.8 53.3c0.6 0.5 1 1.2 1 2v0.6c0 0.3-0.2 0.6-0.4 0.8-0.3 0.2-0.6 0.3-0.9 0.3-0.4 0-0.7-0.1-0.9-0.3-0.3-0.2-0.4-0.5-0.4-0.8v-0.6q0-0.3-0.2-0.4-0.2-0.2-0.4-0.2-0.3 0-0.5 0.2-0.2 0.1-0.2 0.4v7.7c0 2.6-2.4 4.7-5.5 4.7h-0.8q0 0 0 0 0 0 0 0h-4.7c-0.3 0-0.6-0.1-0.9-0.3-0.2 0.2-0.5 0.3-0.9 0.3h-4.6q-0.1 0-0.2 0-0.1-0.1-0.1-0.1-0.1-0.1-0.1-0.1 0-0.1 0-0.2v-0.1c0-0.6 0.2-1.2 0.7-1.7q-1-0.4-1.7-1.2-0.8-0.8-1-1.7l-0.1-0.1c-0.3-1-0.3-2.1 0-3.5 0.5-2.1 1.3-4.2 2.6-6.3q0.1-0.2 0.1-0.4 0-0.1-0.1-0.3c-0.4-0.9-0.6-1.9-0.5-2.8q0-1.1 0.5-2 0 0 0 0c-0.2-1.3-0.2-2.6 0.2-3.9q0-0.1 0.1-0.2 0 0 0.1-0.1 0.1 0 0.2 0 0.1 0 0.2 0.1 1 0.5 1.9 1.2 0.6 0.5 1.1 1 0.5-0.1 1.1-0.1 0.3 0 0.7 0 0.2 0 0.4 0 0.5 0 1.1 0.1 0.5-0.5 1-1 0.9-0.7 1.9-1.2 0.1-0.1 0.2-0.1 0.1 0 0.2 0 0.1 0.1 0.2 0.1 0 0.1 0 0.2c0.4 1.3 0.5 2.6 0.2 3.9q0 0 0 0 0.5 0.9 0.6 2c0.1 0.9-0.1 1.9-0.6 2.8q0 0.2 0 0.3 0 0.2 0.1 0.4c1.2 2.1 2.1 4.2 2.5 6.3 0.3 1.4 0.3 2.5 0 3.5v0.1q-0.3 0.9-1 1.7-0.7 0.7-1.7 1.2h1.1c0.8 0 1.5-0.3 2.1-0.8 0.5-0.4 0.8-1.1 0.8-1.7v-7.7c0-0.8 0.4-1.5 1-2 0.6-0.5 1.4-0.8 2.3-0.8 0.8 0 1.6 0.3 2.2 0.8zm-9.7 13.7c-0.1-0.5-0.3-0.9-0.7-1.2-0.4-0.3-0.9-0.5-1.5-0.5q0 0-0.1 0-0.1 0-0.1-0.1-0.1 0-0.1-0.1-0.1-0.1-0.1-0.1v-4.6q0-0.1 0.2-0.2 0.1-0.1 0.2-0.1 0.2 0 0.3 0.1 0.2 0.1 0.2 0.2v4.2q0.6 0.1 1.1 0.4 1-0.4 1.7-1 0.7-0.7 1-1.6v-0.1c0.2-0.9 0.2-1.8 0-3.2q-0.6-3-2.5-6.1-0.2-0.3-0.2-0.6 0-0.4 0.2-0.7 0.5-1 0.5-2.1 0-1.1-0.5-2.1-0.1-0.2-0.1-0.4 0.3-1.6 0-3.1-1.3 0.7-2.3 1.7-0.1 0.2-0.3 0.2-0.2 0.1-0.4 0.1-0.5-0.1-1-0.1-0.2 0-0.4 0-0.1 0-0.1 0-0.3 0-0.6 0-0.5 0-1 0.1-0.2 0-0.4-0.1-0.3 0-0.4-0.2-0.4-0.4-1-0.9-0.5-0.4-1.2-0.8-0.3 1.5-0.1 3.1 0.1 0.2 0 0.4-0.5 1-0.5 2.1 0 1.1 0.5 2.1 0.1 0.3 0.1 0.7 0 0.3-0.2 0.6-1.8 3.1-2.4 6.1c-0.3 1.4-0.3 2.3 0 3.2v0.1q0.2 0.9 0.9 1.6 0.8 0.6 1.8 1 0.5-0.3 1.1-0.4v-4.2q0-0.1 0.1-0.2 0.1-0.1 0.3-0.1 0.2 0 0.3 0.1 0.1 0.1 0.1 0.2v4.6q0 0 0 0.1-0.1 0.1-0.1 0.1-0.1 0.1-0.2 0.1 0 0-0.1 0c-0.5 0-1.1 0.2-1.5 0.5-0.4 0.3-0.6 0.7-0.7 1.2h4.2q0.2 0 0.4-0.1 0.1-0.2 0.1-0.3v-6.2q0-0.1 0.1-0.2 0.1-0.1 0.3-0.1 0.2 0 0.3 0.1 0.1 0.1 0.1 0.2v6.2q0 0.1 0.2 0.3 0.1 0.1 0.3 0.1zm9.8-11.7c0-0.6-0.2-1.1-0.7-1.5-0.4-0.4-1-0.6-1.7-0.6-0.6 0-1.2 0.2-1.6 0.6-0.5 0.4-0.7 0.9-0.7 1.5v7.7c0 0.8-0.4 1.6-1.1 2.2-0.7 0.6-1.7 1-2.7 1h-0.7q0.2 0.4 0.2 0.8h0.5c1.3 0 2.4-0.4 3.3-1.2 0.9-0.7 1.4-1.8 1.4-2.8v-7.7c0-0.4 0.1-0.7 0.4-0.9 0.3-0.3 0.6-0.4 1-0.4 0.4 0 0.8 0.1 1.1 0.4 0.2 0.2 0.4 0.5 0.4 0.9v0.6q0 0.1 0.1 0.3 0.2 0.1 0.4 0.1 0.1 0 0.3-0.1 0.1-0.2 0.1-0.3zm-12.5-4.1q0.1 0 0.1 0.1 0.1 0 0.1 0.1 0 0.1 0 0.1 0 0.4-0.2 0.8-0.3 0.3-0.7 0.5-0.5 0.1-0.9 0-0.5-0.1-0.8-0.4-0.3 0.3-0.8 0.4-0.4 0.1-0.9 0-0.4-0.2-0.7-0.5-0.2-0.4-0.2-0.8 0-0.1 0.1-0.2 0.1-0.1 0.3-0.1 0.1 0 0.3 0.1 0.1 0.1 0.1 0.2 0 0.3 0.2 0.5 0.2 0.1 0.5 0.1 0.3 0 0.5-0.1 0.2-0.2 0.2-0.5 0-0.1 0.1-0.2 0.1-0.1 0.3-0.1 0.2 0 0.3 0.1 0.1 0.1 0.1 0.2 0 0.3 0.2 0.5 0.2 0.1 0.5 0.1 0.3 0 0.5-0.1 0.2-0.2 0.2-0.5 0 0 0-0.1 0.1-0.1 0.1-0.1 0.1-0.1 0.2-0.1 0 0 0.1 0 0.1 0 0.2 0zm-4.6-1.4q-0.5-0.1-0.9-0.4-0.4-0.4-0.5-0.8-0.1-0.5 0.1-0.9 0.1-0.2 0.2-0.2 0.5-0.2 1.1-0.1 0.5 0.1 0.9 0.4 0.4 0.3 0.5 0.8 0.1 0.5-0.2 0.9 0 0.1-0.2 0.2-0.5 0.2-1 0.1zm-0.6-1.3q0.1 0.2 0.3 0.4 0.1 0.1 0.4 0.2 0.2 0 0.4 0 0.1-0.2 0-0.5 0-0.2-0.2-0.3-0.2-0.2-0.4-0.2-0.2-0.1-0.5 0 0 0.2 0 0.4zm3.8 1q-0.3-0.4-0.2-0.9 0.1-0.5 0.5-0.8 0.4-0.3 0.9-0.4 0.6-0.1 1.1 0.1 0.1 0 0.2 0.2 0.2 0.4 0.1 0.9-0.1 0.4-0.5 0.8-0.4 0.3-0.9 0.4-0.5 0.1-1-0.1-0.2-0.1-0.2-0.2zm0.7-0.9q-0.1 0.3 0 0.5 0.2 0 0.4 0 0.3-0.1 0.4-0.2 0.2-0.2 0.3-0.4 0-0.2 0-0.4-0.3-0.1-0.5 0-0.2 0-0.4 0.2-0.2 0.1-0.2 0.3z"/></g><path fill-rule="evenodd" class="d" d="m38.2 42.4q0 0 0 0zm0 0q2.1 2 0.4 4.4-0.7 0.8-1.6 1.3c-1.4 1.1-3.3 2.4-3.7 4.9l-1.9-0.5c0-2.3-0.1-4.6-0.1-4.6q0-0.2-0.1-0.3-0.2-0.2-0.4-0.2-0.3 0-0.4 0.2-0.2 0.1-0.2 0.3c0 0 0.1 2.9 0.1 5.5 0 2.3-1 2.5-2.2 2.5q-0.2 0.1-0.5 0-0.2-0.1-0.4-0.3c-0.3-0.3-0.7-1.1-0.2-3 0.2-0.9 0.2-0.9 0.2-1.3 0.1-0.3 0.2-1 0.6-3.3q0.4-2.4 2.1-3.3c1.9-1.1 4.4-0.6 4.4-0.6q0.2 0.1 0.4 0zm-4 11.7q-0.1 0-0.2 0-0.1-0.1-0.2-0.2 0-0.1 0-0.2 0-0.1 0.1-0.1 0.1-0.1 0.2-0.1 0.1 0 0.2 0 0.1 0 0.2 0.1 0.1 0.1 0.1 0.2 0 0.1-0.2 0.2-0.1 0.1-0.2 0.1zm3.6 11.3q0.2 0.1 0.4 0.3c0.3 0.4 0.3 0.9 0.2 1.3h-4.3c0.1-0.7-0.1-1.4-0.6-1.9q-0.3-0.3-0.8-0.5-0.4-0.2-0.9-0.1h-1.2q0.6-0.7 0.8-1.4c0.2-0.7 0.1-1.4-0.3-2-0.4-0.7-1-1.2-1.7-1.4q-0.2-0.1-0.3-0.1-0.1 0-0.2 0.1-0.1 0-0.2 0.1 0 0.1-0.1 0.1 0 0.1 0 0.2 0 0.1 0 0.2 0.1 0.1 0.2 0.2 0 0 0.1 0.1c0.5 0.2 1 0.5 1.2 0.9 0.2 0.5 0.3 1 0.2 1.4q-0.2 0.5-0.6 0.9-0.3 0.5-0.9 0.7-0.1 0.1-0.2 0.2-0.1 0.2-0.1 0.4 0.1 0.1 0.2 0.2 0.2 0.1 0.4 0.1h2.7q0.3 0 0.5 0.1 0.2 0 0.3 0.2c0.3 0.4 0.4 0.8 0.3 1.3h-11.6c-0.6 0-1.3-0.1-1.8-0.4-0.6-0.3-1-0.8-1.2-1.3-0.6-1.2-0.2-2.6 1.1-3.8q0.1-0.1 0.4-0.1 0.2 0 0.4 0.1 0.1 0.1 0.1 0.3 0 0.2-0.1 0.4c-1 0.9-1.3 1.9-0.9 2.7q0.2 0.6 0.8 0.9 0.6 0.3 1.2 0.2h1.9q-0.1-0.1-0.1-0.2c-0.3-0.6-0.3-1.3-0.2-2 0.2-0.7 0.5-1.3 1.1-1.9 0.9-0.8 3.1-3.4 3.2-3.5q0.5-0.7 0.7-1.5 0.1 0 0.2 0c2.2 0 3.2-1 3.3-3.4l1.7 0.5q0 0 0 0.1c0.1 4.3 3.5 10.7 3.7 10.9q0 0.1 0.2 0.2 0.1 0.1 0.2 0.1 0.3 0 0.6 0.1z"/></svg>