<svg version="1.2" xmlns="http://www.w3.org/2000/svg" viewBox="0 0 50 45" width="50" height="45"><style>.a{fill:#030303}</style><path fill-rule="evenodd" class="a" d="m33.7 36.1q-0.7 0-1.3-0.2l-7.5-3.5-7.5 3.5q-0.7 0.4-1.4 0.2-0.9 0-1.6-0.4-0.6-0.4-0.9-1.1-0.3-0.6-0.1-1.3l1.4-7.4-6-5.3q-0.6-0.6-0.9-1.2-0.1-0.7 0.2-1.4 0.1-0.7 0.8-1.1 0.6-0.5 1.3-0.6l8.4-1.2 3.9-6.7c0.4-0.8 1.4-1.4 2.4-1.4 1 0 2 0.6 2.5 1.4l3.7 6.7 8.5 1.2q0.7 0.1 1.3 0.6 0.7 0.4 0.9 1.1 0.2 0.7 0.1 1.4-0.3 0.6-0.9 1.2l-5.9 5.3 1.3 7.4q0.2 0.7-0.1 1.3-0.3 0.7-1 1.1-0.7 0.4-1.6 0.4zm-23-17.2l6 5.1c0.6 0.6 0.9 1.4 0.7 2.3l-1.4 7.4 0.8 1.2-0.7-1.2 7.5-3.4q0.6-0.3 1.3-0.3 0.7 0 1.3 0.3l7.5 3.4h0.1l-1.4-7.4q-0.1-0.6 0-1.2 0.3-0.7 0.7-1.1l6.1-5.1v-0.2l-8.4-1.1q-0.7 0-1.3-0.5-0.6-0.2-0.8-0.8l-3.8-6.9-3.7 6.9q-0.5 0.6-0.9 0.8-0.6 0.5-1.3 0.5l-8.3 1.1-1.1 1z"/></svg>