<svg version="1.2" xmlns="http://www.w3.org/2000/svg" viewBox="0 0 50 45" width="50" height="45"><defs><linearGradient id="P" gradientUnits="userSpaceOnUse"/><radialGradient id="g1" cx="25" cy="15.8" r="29.2" href="#P"><stop stop-color="#ffb800"/><stop offset="1" stop-color="#f90"/></radialGradient></defs><style>.a{fill:url(#g1)}.b{fill:#fff}.c{fill:none;stroke:#000;stroke-width:1}</style><rect class="a" width="50" height="45" rx="12"></rect><path class="b" d="m31.1 36.4c-2.7 0.9-3.4 1.8-6.8 1.6-3.3-0.3-7.3-1.4-7.3-1.6-2.7-1.3-6.1-6.9-5.9-6.4-1-2.2-1.6-5.4-1.4-7.8 0.1-1.7 0.6-3.3 1.4-4.8q0 0 0-0.1c-0.6-3.2-0.5-6.4 0.4-9.6q0.1-0.2 0.2-0.4 0.2-0.1 0.4-0.2 0.2-0.1 0.5-0.1 0.2 0 0.4 0.1 2.6 1.4 4.7 3.1 1.4 1.2 2.5 2.4 1.4-0.2 2.7-0.2 0.9 0 1.7 0 0.6 0 1.1 0 1.3 0 2.7 0.2 1.2-1.2 2.5-2.4 2.1-1.7 4.7-3.1 0.2-0.1 0.4-0.1 0.3 0 0.5 0.1 0.2 0.1 0.4 0.2 0.1 0.2 0.2 0.4c0.9 3.2 1 6.4 0.4 9.6q0 0.1 0 0.1c0.8 1.5 1.3 3.1 1.4 4.8 0.2 2.4-0.4 6-1.7 8.1-2.3 3.4-2.4 4.8-6.1 6.1z"/><path class="c" d="m22.5 27.6l-12.6 6.7"/><path class="c" d="m21.8 25.5l-13.5-3.5"/><path class="c" d="m21.8 27.2l-13.8 0.3"/><path class="c" d="m27.7 27.6l13.3 6.7"/><path class="c" d="m28.6 25.5l14.1-3.5"/><path class="c" d="m28.5 27.2l14.5 0.3"/><path  d="m21.7 23.5h6.5l-3.3 5.3z"/></svg>