<svg version="1.2" xmlns="http://www.w3.org/2000/svg" viewBox="0 0 448 512" width="448" height="512"><style>.a{fill:#df3131}</style><path fill-rule="evenodd" class="a" d="m135.2 17.7c5.4-10.9 16.5-17.7 28.6-17.7h120.4c12.1 0 23.2 6.8 28.6 17.7l7.2 14.3h96c17.7 0 32 14.3 32 32 0 17.7-14.3 32-32 32h-384c-17.7 0-32-14.3-32-32 0-17.7 14.3-32 32-32h96zm-104.1 110.3h384.9v320c0 35.3-28.7 64-64 64h-256.9c-34.4 0-64-28.7-64-64zm80 80v224c0 8.8 8.1 16 16 16 9.7 0 16-7.2 16-16v-224c0-8.8-6.3-16-16-16-7.9 0-16 7.2-16 16zm96 0v224c0 8.8 8.1 16 16 16 9.7 0 16.9-7.2 16.9-16v-224c0-8.8-7.2-16-16.9-16-7.9 0-16 7.2-16 16zm96.9 0v224c0 8.8 7.2 16 16 16 8.8 0 16-7.2 16-16v-224c0-8.8-7.2-16-16-16-8.8 0-16 7.2-16 16z"/></svg>