<svg version="1.2" xmlns="http://www.w3.org/2000/svg" viewBox="0 0 512 512" width="512" height="512"><style>.a{fill:#ff0}</style><path class="a" d="m421.7 220.3l-233.2 233.1-33.9-33.9 3.5-3.5h-46.1c-8.8 0-16-7.2-16-16v-46.1l-3.5 3.5c-4.7 4.8-8.2 10.6-10.1 17l-23 78.2 78.2-23c5.5-1.9 12.2-5.4 17-10.1l33.9 33.9c-10.4 10.4-23.3 18.1-37.4 22.2l-120.3 35.4c-8.5 2.5-17.6 0.2-23.8-6.9-6.2-5.3-8.5-14.4-6-22.9l35.4-120.3c4.1-14.1 11.8-27 22.2-37.4l233.1-233.2zm71-161.5c25 25 25 65.5 0 90.5l-48.4 48.4-130-129.9 48.4-48.4c25-25 65.6-25 90.6 0z"/></svg>